<?xml version="1.0" encoding="utf-8" standalone="no"?>
<!DOCTYPE svg PUBLIC "-//W3C//DTD SVG 1.1//EN"
  "http://www.w3.org/Graphics/SVG/1.1/DTD/svg11.dtd">
<!-- Created with matplotlib (https://matplotlib.org/) -->
<svg height="345.6pt" version="1.1" viewBox="0 0 460.8 345.6" width="460.8pt" xmlns="http://www.w3.org/2000/svg" xmlns:xlink="http://www.w3.org/1999/xlink">
 <defs>
  <style type="text/css">
*{stroke-linecap:butt;stroke-linejoin:round;}
  </style>
 </defs>
 <g id="figure_1">
  <g id="patch_1">
   <path d="M 0 345.6 
L 460.8 345.6 
L 460.8 0 
L 0 0 
z
" style="fill:#ffffff;"/>
  </g>
  <g id="axes_1">
   <g id="patch_2">
    <path d="M 57.6 307.584 
L 414.72 307.584 
L 414.72 41.472 
L 57.6 41.472 
z
" style="fill:#ffffff;"/>
   </g>
   <g id="matplotlib.axis_1">
    <g id="xtick_1">
     <g id="line2d_1">
      <defs>
       <path d="M 0 0 
L 0 3.5 
" id="mec7d560575" style="stroke:#000000;stroke-width:0.8;"/>
      </defs>
      <g>
       <use style="stroke:#000000;stroke-width:0.8;" x="73.697086" xlink:href="#mec7d560575" y="307.584"/>
      </g>
     </g>
     <g id="text_1">
      <!-- 0 -->
      <defs>
       <path d="M 31.78125 66.40625 
Q 24.171875 66.40625 20.328125 58.90625 
Q 16.5 51.421875 16.5 36.375 
Q 16.5 21.390625 20.328125 13.890625 
Q 24.171875 6.390625 31.78125 6.390625 
Q 39.453125 6.390625 43.28125 13.890625 
Q 47.125 21.390625 47.125 36.375 
Q 47.125 51.421875 43.28125 58.90625 
Q 39.453125 66.40625 31.78125 66.40625 
z
M 31.78125 74.21875 
Q 44.046875 74.21875 50.515625 64.515625 
Q 56.984375 54.828125 56.984375 36.375 
Q 56.984375 17.96875 50.515625 8.265625 
Q 44.046875 -1.421875 31.78125 -1.421875 
Q 19.53125 -1.421875 13.0625 8.265625 
Q 6.59375 17.96875 6.59375 36.375 
Q 6.59375 54.828125 13.0625 64.515625 
Q 19.53125 74.21875 31.78125 74.21875 
z
" id="DejaVuSans-48"/>
      </defs>
      <g transform="translate(70.515836 322.182437)scale(0.1 -0.1)">
       <use xlink:href="#DejaVuSans-48"/>
      </g>
     </g>
    </g>
    <g id="xtick_2">
     <g id="line2d_2">
      <g>
       <use style="stroke:#000000;stroke-width:0.8;" x="127.903034" xlink:href="#mec7d560575" y="307.584"/>
      </g>
     </g>
     <g id="text_2">
      <!-- 1 -->
      <defs>
       <path d="M 12.40625 8.296875 
L 28.515625 8.296875 
L 28.515625 63.921875 
L 10.984375 60.40625 
L 10.984375 69.390625 
L 28.421875 72.90625 
L 38.28125 72.90625 
L 38.28125 8.296875 
L 54.390625 8.296875 
L 54.390625 0 
L 12.40625 0 
z
" id="DejaVuSans-49"/>
      </defs>
      <g transform="translate(124.721784 322.182437)scale(0.1 -0.1)">
       <use xlink:href="#DejaVuSans-49"/>
      </g>
     </g>
    </g>
    <g id="xtick_3">
     <g id="line2d_3">
      <g>
       <use style="stroke:#000000;stroke-width:0.8;" x="182.108982" xlink:href="#mec7d560575" y="307.584"/>
      </g>
     </g>
     <g id="text_3">
      <!-- 2 -->
      <defs>
       <path d="M 19.1875 8.296875 
L 53.609375 8.296875 
L 53.609375 0 
L 7.328125 0 
L 7.328125 8.296875 
Q 12.9375 14.109375 22.625 23.890625 
Q 32.328125 33.6875 34.8125 36.53125 
Q 39.546875 41.84375 41.421875 45.53125 
Q 43.3125 49.21875 43.3125 52.78125 
Q 43.3125 58.59375 39.234375 62.25 
Q 35.15625 65.921875 28.609375 65.921875 
Q 23.96875 65.921875 18.8125 64.3125 
Q 13.671875 62.703125 7.8125 59.421875 
L 7.8125 69.390625 
Q 13.765625 71.78125 18.9375 73 
Q 24.125 74.21875 28.421875 74.21875 
Q 39.75 74.21875 46.484375 68.546875 
Q 53.21875 62.890625 53.21875 53.421875 
Q 53.21875 48.921875 51.53125 44.890625 
Q 49.859375 40.875 45.40625 35.40625 
Q 44.1875 33.984375 37.640625 27.21875 
Q 31.109375 20.453125 19.1875 8.296875 
z
" id="DejaVuSans-50"/>
      </defs>
      <g transform="translate(178.927732 322.182437)scale(0.1 -0.1)">
       <use xlink:href="#DejaVuSans-50"/>
      </g>
     </g>
    </g>
    <g id="xtick_4">
     <g id="line2d_4">
      <g>
       <use style="stroke:#000000;stroke-width:0.8;" x="236.31493" xlink:href="#mec7d560575" y="307.584"/>
      </g>
     </g>
     <g id="text_4">
      <!-- 3 -->
      <defs>
       <path d="M 40.578125 39.3125 
Q 47.65625 37.796875 51.625 33 
Q 55.609375 28.21875 55.609375 21.1875 
Q 55.609375 10.40625 48.1875 4.484375 
Q 40.765625 -1.421875 27.09375 -1.421875 
Q 22.515625 -1.421875 17.65625 -0.515625 
Q 12.796875 0.390625 7.625 2.203125 
L 7.625 11.71875 
Q 11.71875 9.328125 16.59375 8.109375 
Q 21.484375 6.890625 26.8125 6.890625 
Q 36.078125 6.890625 40.9375 10.546875 
Q 45.796875 14.203125 45.796875 21.1875 
Q 45.796875 27.640625 41.28125 31.265625 
Q 36.765625 34.90625 28.71875 34.90625 
L 20.21875 34.90625 
L 20.21875 43.015625 
L 29.109375 43.015625 
Q 36.375 43.015625 40.234375 45.921875 
Q 44.09375 48.828125 44.09375 54.296875 
Q 44.09375 59.90625 40.109375 62.90625 
Q 36.140625 65.921875 28.71875 65.921875 
Q 24.65625 65.921875 20.015625 65.03125 
Q 15.375 64.15625 9.8125 62.3125 
L 9.8125 71.09375 
Q 15.4375 72.65625 20.34375 73.4375 
Q 25.25 74.21875 29.59375 74.21875 
Q 40.828125 74.21875 47.359375 69.109375 
Q 53.90625 64.015625 53.90625 55.328125 
Q 53.90625 49.265625 50.4375 45.09375 
Q 46.96875 40.921875 40.578125 39.3125 
z
" id="DejaVuSans-51"/>
      </defs>
      <g transform="translate(233.13368 322.182437)scale(0.1 -0.1)">
       <use xlink:href="#DejaVuSans-51"/>
      </g>
     </g>
    </g>
    <g id="xtick_5">
     <g id="line2d_5">
      <g>
       <use style="stroke:#000000;stroke-width:0.8;" x="290.520877" xlink:href="#mec7d560575" y="307.584"/>
      </g>
     </g>
     <g id="text_5">
      <!-- 4 -->
      <defs>
       <path d="M 37.796875 64.3125 
L 12.890625 25.390625 
L 37.796875 25.390625 
z
M 35.203125 72.90625 
L 47.609375 72.90625 
L 47.609375 25.390625 
L 58.015625 25.390625 
L 58.015625 17.1875 
L 47.609375 17.1875 
L 47.609375 0 
L 37.796875 0 
L 37.796875 17.1875 
L 4.890625 17.1875 
L 4.890625 26.703125 
z
" id="DejaVuSans-52"/>
      </defs>
      <g transform="translate(287.339627 322.182437)scale(0.1 -0.1)">
       <use xlink:href="#DejaVuSans-52"/>
      </g>
     </g>
    </g>
    <g id="xtick_6">
     <g id="line2d_6">
      <g>
       <use style="stroke:#000000;stroke-width:0.8;" x="344.726825" xlink:href="#mec7d560575" y="307.584"/>
      </g>
     </g>
     <g id="text_6">
      <!-- 5 -->
      <defs>
       <path d="M 10.796875 72.90625 
L 49.515625 72.90625 
L 49.515625 64.59375 
L 19.828125 64.59375 
L 19.828125 46.734375 
Q 21.96875 47.46875 24.109375 47.828125 
Q 26.265625 48.1875 28.421875 48.1875 
Q 40.625 48.1875 47.75 41.5 
Q 54.890625 34.8125 54.890625 23.390625 
Q 54.890625 11.625 47.5625 5.09375 
Q 40.234375 -1.421875 26.90625 -1.421875 
Q 22.3125 -1.421875 17.546875 -0.640625 
Q 12.796875 0.140625 7.71875 1.703125 
L 7.71875 11.625 
Q 12.109375 9.234375 16.796875 8.0625 
Q 21.484375 6.890625 26.703125 6.890625 
Q 35.15625 6.890625 40.078125 11.328125 
Q 45.015625 15.765625 45.015625 23.390625 
Q 45.015625 31 40.078125 35.4375 
Q 35.15625 39.890625 26.703125 39.890625 
Q 22.75 39.890625 18.8125 39.015625 
Q 14.890625 38.140625 10.796875 36.28125 
z
" id="DejaVuSans-53"/>
      </defs>
      <g transform="translate(341.545575 322.182437)scale(0.1 -0.1)">
       <use xlink:href="#DejaVuSans-53"/>
      </g>
     </g>
    </g>
    <g id="xtick_7">
     <g id="line2d_7">
      <g>
       <use style="stroke:#000000;stroke-width:0.8;" x="398.932773" xlink:href="#mec7d560575" y="307.584"/>
      </g>
     </g>
     <g id="text_7">
      <!-- 6 -->
      <defs>
       <path d="M 33.015625 40.375 
Q 26.375 40.375 22.484375 35.828125 
Q 18.609375 31.296875 18.609375 23.390625 
Q 18.609375 15.53125 22.484375 10.953125 
Q 26.375 6.390625 33.015625 6.390625 
Q 39.65625 6.390625 43.53125 10.953125 
Q 47.40625 15.53125 47.40625 23.390625 
Q 47.40625 31.296875 43.53125 35.828125 
Q 39.65625 40.375 33.015625 40.375 
z
M 52.59375 71.296875 
L 52.59375 62.3125 
Q 48.875 64.0625 45.09375 64.984375 
Q 41.3125 65.921875 37.59375 65.921875 
Q 27.828125 65.921875 22.671875 59.328125 
Q 17.53125 52.734375 16.796875 39.40625 
Q 19.671875 43.65625 24.015625 45.921875 
Q 28.375 48.1875 33.59375 48.1875 
Q 44.578125 48.1875 50.953125 41.515625 
Q 57.328125 34.859375 57.328125 23.390625 
Q 57.328125 12.15625 50.6875 5.359375 
Q 44.046875 -1.421875 33.015625 -1.421875 
Q 20.359375 -1.421875 13.671875 8.265625 
Q 6.984375 17.96875 6.984375 36.375 
Q 6.984375 53.65625 15.1875 63.9375 
Q 23.390625 74.21875 37.203125 74.21875 
Q 40.921875 74.21875 44.703125 73.484375 
Q 48.484375 72.75 52.59375 71.296875 
z
" id="DejaVuSans-54"/>
      </defs>
      <g transform="translate(395.751523 322.182437)scale(0.1 -0.1)">
       <use xlink:href="#DejaVuSans-54"/>
      </g>
     </g>
    </g>
    <g id="text_8">
     <!-- Theoretical quantiles -->
     <defs>
      <path d="M -0.296875 72.90625 
L 61.375 72.90625 
L 61.375 64.59375 
L 35.5 64.59375 
L 35.5 0 
L 25.59375 0 
L 25.59375 64.59375 
L -0.296875 64.59375 
z
" id="DejaVuSans-84"/>
      <path d="M 54.890625 33.015625 
L 54.890625 0 
L 45.90625 0 
L 45.90625 32.71875 
Q 45.90625 40.484375 42.875 44.328125 
Q 39.84375 48.1875 33.796875 48.1875 
Q 26.515625 48.1875 22.3125 43.546875 
Q 18.109375 38.921875 18.109375 30.90625 
L 18.109375 0 
L 9.078125 0 
L 9.078125 75.984375 
L 18.109375 75.984375 
L 18.109375 46.1875 
Q 21.34375 51.125 25.703125 53.5625 
Q 30.078125 56 35.796875 56 
Q 45.21875 56 50.046875 50.171875 
Q 54.890625 44.34375 54.890625 33.015625 
z
" id="DejaVuSans-104"/>
      <path d="M 56.203125 29.59375 
L 56.203125 25.203125 
L 14.890625 25.203125 
Q 15.484375 15.921875 20.484375 11.0625 
Q 25.484375 6.203125 34.421875 6.203125 
Q 39.59375 6.203125 44.453125 7.46875 
Q 49.3125 8.734375 54.109375 11.28125 
L 54.109375 2.78125 
Q 49.265625 0.734375 44.1875 -0.34375 
Q 39.109375 -1.421875 33.890625 -1.421875 
Q 20.796875 -1.421875 13.15625 6.1875 
Q 5.515625 13.8125 5.515625 26.8125 
Q 5.515625 40.234375 12.765625 48.109375 
Q 20.015625 56 32.328125 56 
Q 43.359375 56 49.78125 48.890625 
Q 56.203125 41.796875 56.203125 29.59375 
z
M 47.21875 32.234375 
Q 47.125 39.59375 43.09375 43.984375 
Q 39.0625 48.390625 32.421875 48.390625 
Q 24.90625 48.390625 20.390625 44.140625 
Q 15.875 39.890625 15.1875 32.171875 
z
" id="DejaVuSans-101"/>
      <path d="M 30.609375 48.390625 
Q 23.390625 48.390625 19.1875 42.75 
Q 14.984375 37.109375 14.984375 27.296875 
Q 14.984375 17.484375 19.15625 11.84375 
Q 23.34375 6.203125 30.609375 6.203125 
Q 37.796875 6.203125 41.984375 11.859375 
Q 46.1875 17.53125 46.1875 27.296875 
Q 46.1875 37.015625 41.984375 42.703125 
Q 37.796875 48.390625 30.609375 48.390625 
z
M 30.609375 56 
Q 42.328125 56 49.015625 48.375 
Q 55.71875 40.765625 55.71875 27.296875 
Q 55.71875 13.875 49.015625 6.21875 
Q 42.328125 -1.421875 30.609375 -1.421875 
Q 18.84375 -1.421875 12.171875 6.21875 
Q 5.515625 13.875 5.515625 27.296875 
Q 5.515625 40.765625 12.171875 48.375 
Q 18.84375 56 30.609375 56 
z
" id="DejaVuSans-111"/>
      <path d="M 41.109375 46.296875 
Q 39.59375 47.171875 37.8125 47.578125 
Q 36.03125 48 33.890625 48 
Q 26.265625 48 22.1875 43.046875 
Q 18.109375 38.09375 18.109375 28.8125 
L 18.109375 0 
L 9.078125 0 
L 9.078125 54.6875 
L 18.109375 54.6875 
L 18.109375 46.1875 
Q 20.953125 51.171875 25.484375 53.578125 
Q 30.03125 56 36.53125 56 
Q 37.453125 56 38.578125 55.875 
Q 39.703125 55.765625 41.0625 55.515625 
z
" id="DejaVuSans-114"/>
      <path d="M 18.3125 70.21875 
L 18.3125 54.6875 
L 36.8125 54.6875 
L 36.8125 47.703125 
L 18.3125 47.703125 
L 18.3125 18.015625 
Q 18.3125 11.328125 20.140625 9.421875 
Q 21.96875 7.515625 27.59375 7.515625 
L 36.8125 7.515625 
L 36.8125 0 
L 27.59375 0 
Q 17.1875 0 13.234375 3.875 
Q 9.28125 7.765625 9.28125 18.015625 
L 9.28125 47.703125 
L 2.6875 47.703125 
L 2.6875 54.6875 
L 9.28125 54.6875 
L 9.28125 70.21875 
z
" id="DejaVuSans-116"/>
      <path d="M 9.421875 54.6875 
L 18.40625 54.6875 
L 18.40625 0 
L 9.421875 0 
z
M 9.421875 75.984375 
L 18.40625 75.984375 
L 18.40625 64.59375 
L 9.421875 64.59375 
z
" id="DejaVuSans-105"/>
      <path d="M 48.78125 52.59375 
L 48.78125 44.1875 
Q 44.96875 46.296875 41.140625 47.34375 
Q 37.3125 48.390625 33.40625 48.390625 
Q 24.65625 48.390625 19.8125 42.84375 
Q 14.984375 37.3125 14.984375 27.296875 
Q 14.984375 17.28125 19.8125 11.734375 
Q 24.65625 6.203125 33.40625 6.203125 
Q 37.3125 6.203125 41.140625 7.25 
Q 44.96875 8.296875 48.78125 10.40625 
L 48.78125 2.09375 
Q 45.015625 0.34375 40.984375 -0.53125 
Q 36.96875 -1.421875 32.421875 -1.421875 
Q 20.0625 -1.421875 12.78125 6.34375 
Q 5.515625 14.109375 5.515625 27.296875 
Q 5.515625 40.671875 12.859375 48.328125 
Q 20.21875 56 33.015625 56 
Q 37.15625 56 41.109375 55.140625 
Q 45.0625 54.296875 48.78125 52.59375 
z
" id="DejaVuSans-99"/>
      <path d="M 34.28125 27.484375 
Q 23.390625 27.484375 19.1875 25 
Q 14.984375 22.515625 14.984375 16.5 
Q 14.984375 11.71875 18.140625 8.90625 
Q 21.296875 6.109375 26.703125 6.109375 
Q 34.1875 6.109375 38.703125 11.40625 
Q 43.21875 16.703125 43.21875 25.484375 
L 43.21875 27.484375 
z
M 52.203125 31.203125 
L 52.203125 0 
L 43.21875 0 
L 43.21875 8.296875 
Q 40.140625 3.328125 35.546875 0.953125 
Q 30.953125 -1.421875 24.3125 -1.421875 
Q 15.921875 -1.421875 10.953125 3.296875 
Q 6 8.015625 6 15.921875 
Q 6 25.140625 12.171875 29.828125 
Q 18.359375 34.515625 30.609375 34.515625 
L 43.21875 34.515625 
L 43.21875 35.40625 
Q 43.21875 41.609375 39.140625 45 
Q 35.0625 48.390625 27.6875 48.390625 
Q 23 48.390625 18.546875 47.265625 
Q 14.109375 46.140625 10.015625 43.890625 
L 10.015625 52.203125 
Q 14.9375 54.109375 19.578125 55.046875 
Q 24.21875 56 28.609375 56 
Q 40.484375 56 46.34375 49.84375 
Q 52.203125 43.703125 52.203125 31.203125 
z
" id="DejaVuSans-97"/>
      <path d="M 9.421875 75.984375 
L 18.40625 75.984375 
L 18.40625 0 
L 9.421875 0 
z
" id="DejaVuSans-108"/>
      <path id="DejaVuSans-32"/>
      <path d="M 14.796875 27.296875 
Q 14.796875 17.390625 18.875 11.75 
Q 22.953125 6.109375 30.078125 6.109375 
Q 37.203125 6.109375 41.296875 11.75 
Q 45.40625 17.390625 45.40625 27.296875 
Q 45.40625 37.203125 41.296875 42.84375 
Q 37.203125 48.484375 30.078125 48.484375 
Q 22.953125 48.484375 18.875 42.84375 
Q 14.796875 37.203125 14.796875 27.296875 
z
M 45.40625 8.203125 
Q 42.578125 3.328125 38.25 0.953125 
Q 33.9375 -1.421875 27.875 -1.421875 
Q 17.96875 -1.421875 11.734375 6.484375 
Q 5.515625 14.40625 5.515625 27.296875 
Q 5.515625 40.1875 11.734375 48.09375 
Q 17.96875 56 27.875 56 
Q 33.9375 56 38.25 53.625 
Q 42.578125 51.265625 45.40625 46.390625 
L 45.40625 54.6875 
L 54.390625 54.6875 
L 54.390625 -20.796875 
L 45.40625 -20.796875 
z
" id="DejaVuSans-113"/>
      <path d="M 8.5 21.578125 
L 8.5 54.6875 
L 17.484375 54.6875 
L 17.484375 21.921875 
Q 17.484375 14.15625 20.5 10.265625 
Q 23.53125 6.390625 29.59375 6.390625 
Q 36.859375 6.390625 41.078125 11.03125 
Q 45.3125 15.671875 45.3125 23.6875 
L 45.3125 54.6875 
L 54.296875 54.6875 
L 54.296875 0 
L 45.3125 0 
L 45.3125 8.40625 
Q 42.046875 3.421875 37.71875 1 
Q 33.40625 -1.421875 27.6875 -1.421875 
Q 18.265625 -1.421875 13.375 4.4375 
Q 8.5 10.296875 8.5 21.578125 
z
M 31.109375 56 
z
" id="DejaVuSans-117"/>
      <path d="M 54.890625 33.015625 
L 54.890625 0 
L 45.90625 0 
L 45.90625 32.71875 
Q 45.90625 40.484375 42.875 44.328125 
Q 39.84375 48.1875 33.796875 48.1875 
Q 26.515625 48.1875 22.3125 43.546875 
Q 18.109375 38.921875 18.109375 30.90625 
L 18.109375 0 
L 9.078125 0 
L 9.078125 54.6875 
L 18.109375 54.6875 
L 18.109375 46.1875 
Q 21.34375 51.125 25.703125 53.5625 
Q 30.078125 56 35.796875 56 
Q 45.21875 56 50.046875 50.171875 
Q 54.890625 44.34375 54.890625 33.015625 
z
" id="DejaVuSans-110"/>
      <path d="M 44.28125 53.078125 
L 44.28125 44.578125 
Q 40.484375 46.53125 36.375 47.5 
Q 32.28125 48.484375 27.875 48.484375 
Q 21.1875 48.484375 17.84375 46.4375 
Q 14.5 44.390625 14.5 40.28125 
Q 14.5 37.15625 16.890625 35.375 
Q 19.28125 33.59375 26.515625 31.984375 
L 29.59375 31.296875 
Q 39.15625 29.25 43.1875 25.515625 
Q 47.21875 21.78125 47.21875 15.09375 
Q 47.21875 7.46875 41.1875 3.015625 
Q 35.15625 -1.421875 24.609375 -1.421875 
Q 20.21875 -1.421875 15.453125 -0.5625 
Q 10.6875 0.296875 5.421875 2 
L 5.421875 11.28125 
Q 10.40625 8.6875 15.234375 7.390625 
Q 20.0625 6.109375 24.8125 6.109375 
Q 31.15625 6.109375 34.5625 8.28125 
Q 37.984375 10.453125 37.984375 14.40625 
Q 37.984375 18.0625 35.515625 20.015625 
Q 33.0625 21.96875 24.703125 23.78125 
L 21.578125 24.515625 
Q 13.234375 26.265625 9.515625 29.90625 
Q 5.8125 33.546875 5.8125 39.890625 
Q 5.8125 47.609375 11.28125 51.796875 
Q 16.75 56 26.8125 56 
Q 31.78125 56 36.171875 55.265625 
Q 40.578125 54.546875 44.28125 53.078125 
z
" id="DejaVuSans-115"/>
     </defs>
     <g transform="translate(183.535 335.860562)scale(0.1 -0.1)">
      <use xlink:href="#DejaVuSans-84"/>
      <use x="61.083984" xlink:href="#DejaVuSans-104"/>
      <use x="124.462891" xlink:href="#DejaVuSans-101"/>
      <use x="185.986328" xlink:href="#DejaVuSans-111"/>
      <use x="247.167969" xlink:href="#DejaVuSans-114"/>
      <use x="288.25" xlink:href="#DejaVuSans-101"/>
      <use x="349.773438" xlink:href="#DejaVuSans-116"/>
      <use x="388.982422" xlink:href="#DejaVuSans-105"/>
      <use x="416.765625" xlink:href="#DejaVuSans-99"/>
      <use x="471.746094" xlink:href="#DejaVuSans-97"/>
      <use x="533.025391" xlink:href="#DejaVuSans-108"/>
      <use x="560.808594" xlink:href="#DejaVuSans-32"/>
      <use x="592.595703" xlink:href="#DejaVuSans-113"/>
      <use x="656.072266" xlink:href="#DejaVuSans-117"/>
      <use x="719.451172" xlink:href="#DejaVuSans-97"/>
      <use x="780.730469" xlink:href="#DejaVuSans-110"/>
      <use x="844.109375" xlink:href="#DejaVuSans-116"/>
      <use x="883.318359" xlink:href="#DejaVuSans-105"/>
      <use x="911.101562" xlink:href="#DejaVuSans-108"/>
      <use x="938.884766" xlink:href="#DejaVuSans-101"/>
      <use x="1000.408203" xlink:href="#DejaVuSans-115"/>
     </g>
    </g>
   </g>
   <g id="matplotlib.axis_2">
    <g id="ytick_1">
     <g id="line2d_8">
      <defs>
       <path d="M 0 0 
L -3.5 0 
" id="madd16adfc5" style="stroke:#000000;stroke-width:0.8;"/>
      </defs>
      <g>
       <use style="stroke:#000000;stroke-width:0.8;" x="57.6" xlink:href="#madd16adfc5" y="295.733636"/>
      </g>
     </g>
     <g id="text_9">
      <!-- 0 -->
      <g transform="translate(44.2375 299.532855)scale(0.1 -0.1)">
       <use xlink:href="#DejaVuSans-48"/>
      </g>
     </g>
    </g>
    <g id="ytick_2">
     <g id="line2d_9">
      <g>
       <use style="stroke:#000000;stroke-width:0.8;" x="57.6" xlink:href="#madd16adfc5" y="253.451587"/>
      </g>
     </g>
     <g id="text_10">
      <!-- 1 -->
      <g transform="translate(44.2375 257.250806)scale(0.1 -0.1)">
       <use xlink:href="#DejaVuSans-49"/>
      </g>
     </g>
    </g>
    <g id="ytick_3">
     <g id="line2d_10">
      <g>
       <use style="stroke:#000000;stroke-width:0.8;" x="57.6" xlink:href="#madd16adfc5" y="211.169538"/>
      </g>
     </g>
     <g id="text_11">
      <!-- 2 -->
      <g transform="translate(44.2375 214.968757)scale(0.1 -0.1)">
       <use xlink:href="#DejaVuSans-50"/>
      </g>
     </g>
    </g>
    <g id="ytick_4">
     <g id="line2d_11">
      <g>
       <use style="stroke:#000000;stroke-width:0.8;" x="57.6" xlink:href="#madd16adfc5" y="168.887489"/>
      </g>
     </g>
     <g id="text_12">
      <!-- 3 -->
      <g transform="translate(44.2375 172.686708)scale(0.1 -0.1)">
       <use xlink:href="#DejaVuSans-51"/>
      </g>
     </g>
    </g>
    <g id="ytick_5">
     <g id="line2d_12">
      <g>
       <use style="stroke:#000000;stroke-width:0.8;" x="57.6" xlink:href="#madd16adfc5" y="126.60544"/>
      </g>
     </g>
     <g id="text_13">
      <!-- 4 -->
      <g transform="translate(44.2375 130.404659)scale(0.1 -0.1)">
       <use xlink:href="#DejaVuSans-52"/>
      </g>
     </g>
    </g>
    <g id="ytick_6">
     <g id="line2d_13">
      <g>
       <use style="stroke:#000000;stroke-width:0.8;" x="57.6" xlink:href="#madd16adfc5" y="84.323392"/>
      </g>
     </g>
     <g id="text_14">
      <!-- 5 -->
      <g transform="translate(44.2375 88.12261)scale(0.1 -0.1)">
       <use xlink:href="#DejaVuSans-53"/>
      </g>
     </g>
    </g>
    <g id="ytick_7">
     <g id="line2d_14">
      <g>
       <use style="stroke:#000000;stroke-width:0.8;" x="57.6" xlink:href="#madd16adfc5" y="42.041343"/>
      </g>
     </g>
     <g id="text_15">
      <!-- 6 -->
      <g transform="translate(44.2375 45.840561)scale(0.1 -0.1)">
       <use xlink:href="#DejaVuSans-54"/>
      </g>
     </g>
    </g>
    <g id="text_16">
     <!-- Ordered Values -->
     <defs>
      <path d="M 39.40625 66.21875 
Q 28.65625 66.21875 22.328125 58.203125 
Q 16.015625 50.203125 16.015625 36.375 
Q 16.015625 22.609375 22.328125 14.59375 
Q 28.65625 6.59375 39.40625 6.59375 
Q 50.140625 6.59375 56.421875 14.59375 
Q 62.703125 22.609375 62.703125 36.375 
Q 62.703125 50.203125 56.421875 58.203125 
Q 50.140625 66.21875 39.40625 66.21875 
z
M 39.40625 74.21875 
Q 54.734375 74.21875 63.90625 63.9375 
Q 73.09375 53.65625 73.09375 36.375 
Q 73.09375 19.140625 63.90625 8.859375 
Q 54.734375 -1.421875 39.40625 -1.421875 
Q 24.03125 -1.421875 14.8125 8.828125 
Q 5.609375 19.09375 5.609375 36.375 
Q 5.609375 53.65625 14.8125 63.9375 
Q 24.03125 74.21875 39.40625 74.21875 
z
" id="DejaVuSans-79"/>
      <path d="M 45.40625 46.390625 
L 45.40625 75.984375 
L 54.390625 75.984375 
L 54.390625 0 
L 45.40625 0 
L 45.40625 8.203125 
Q 42.578125 3.328125 38.25 0.953125 
Q 33.9375 -1.421875 27.875 -1.421875 
Q 17.96875 -1.421875 11.734375 6.484375 
Q 5.515625 14.40625 5.515625 27.296875 
Q 5.515625 40.1875 11.734375 48.09375 
Q 17.96875 56 27.875 56 
Q 33.9375 56 38.25 53.625 
Q 42.578125 51.265625 45.40625 46.390625 
z
M 14.796875 27.296875 
Q 14.796875 17.390625 18.875 11.75 
Q 22.953125 6.109375 30.078125 6.109375 
Q 37.203125 6.109375 41.296875 11.75 
Q 45.40625 17.390625 45.40625 27.296875 
Q 45.40625 37.203125 41.296875 42.84375 
Q 37.203125 48.484375 30.078125 48.484375 
Q 22.953125 48.484375 18.875 42.84375 
Q 14.796875 37.203125 14.796875 27.296875 
z
" id="DejaVuSans-100"/>
      <path d="M 28.609375 0 
L 0.78125 72.90625 
L 11.078125 72.90625 
L 34.1875 11.53125 
L 57.328125 72.90625 
L 67.578125 72.90625 
L 39.796875 0 
z
" id="DejaVuSans-86"/>
     </defs>
     <g transform="translate(38.157812 213.381125)rotate(-90)scale(0.1 -0.1)">
      <use xlink:href="#DejaVuSans-79"/>
      <use x="78.710938" xlink:href="#DejaVuSans-114"/>
      <use x="119.808594" xlink:href="#DejaVuSans-100"/>
      <use x="183.285156" xlink:href="#DejaVuSans-101"/>
      <use x="244.808594" xlink:href="#DejaVuSans-114"/>
      <use x="285.890625" xlink:href="#DejaVuSans-101"/>
      <use x="347.414062" xlink:href="#DejaVuSans-100"/>
      <use x="410.890625" xlink:href="#DejaVuSans-32"/>
      <use x="442.677734" xlink:href="#DejaVuSans-86"/>
      <use x="510.976562" xlink:href="#DejaVuSans-97"/>
      <use x="572.255859" xlink:href="#DejaVuSans-108"/>
      <use x="600.039062" xlink:href="#DejaVuSans-117"/>
      <use x="663.417969" xlink:href="#DejaVuSans-101"/>
      <use x="724.941406" xlink:href="#DejaVuSans-115"/>
     </g>
    </g>
   </g>
   <g id="line2d_15">
    <defs>
     <path d="M 0 3 
C 0.795609 3 1.55874 2.683901 2.12132 2.12132 
C 2.683901 1.55874 3 0.795609 3 0 
C 3 -0.795609 2.683901 -1.55874 2.12132 -2.12132 
C 1.55874 -2.683901 0.795609 -3 0 -3 
C -0.795609 -3 -1.55874 -2.683901 -2.12132 -2.12132 
C -2.683901 -1.55874 -3 -0.795609 -3 0 
C -3 0.795609 -2.683901 1.55874 -2.12132 2.12132 
C -1.55874 2.683901 -0.795609 3 0 3 
z
" id="ma73f06dcab" style="stroke:#0000ff;"/>
    </defs>
    <g clip-path="url(#pa21e7b96c7)">
     <use style="fill:#0000ff;stroke:#0000ff;" x="73.832727" xlink:href="#ma73f06dcab" y="295.488"/>
     <use style="fill:#0000ff;stroke:#0000ff;" x="74.026901" xlink:href="#ma73f06dcab" y="295.405339"/>
     <use style="fill:#0000ff;stroke:#0000ff;" x="74.223883" xlink:href="#ma73f06dcab" y="295.070895"/>
     <use style="fill:#0000ff;stroke:#0000ff;" x="74.421584" xlink:href="#ma73f06dcab" y="294.740657"/>
     <use style="fill:#0000ff;stroke:#0000ff;" x="74.620008" xlink:href="#ma73f06dcab" y="294.6501"/>
     <use style="fill:#0000ff;stroke:#0000ff;" x="74.819161" xlink:href="#ma73f06dcab" y="294.117894"/>
     <use style="fill:#0000ff;stroke:#0000ff;" x="75.019049" xlink:href="#ma73f06dcab" y="293.975815"/>
     <use style="fill:#0000ff;stroke:#0000ff;" x="75.219676" xlink:href="#ma73f06dcab" y="293.442353"/>
     <use style="fill:#0000ff;stroke:#0000ff;" x="75.421049" xlink:href="#ma73f06dcab" y="293.312925"/>
     <use style="fill:#0000ff;stroke:#0000ff;" x="75.623172" xlink:href="#ma73f06dcab" y="293.217878"/>
     <use style="fill:#0000ff;stroke:#0000ff;" x="75.826052" xlink:href="#ma73f06dcab" y="292.981524"/>
     <use style="fill:#0000ff;stroke:#0000ff;" x="76.029695" xlink:href="#ma73f06dcab" y="292.800939"/>
     <use style="fill:#0000ff;stroke:#0000ff;" x="76.234105" xlink:href="#ma73f06dcab" y="292.722956"/>
     <use style="fill:#0000ff;stroke:#0000ff;" x="76.439289" xlink:href="#ma73f06dcab" y="292.351576"/>
     <use style="fill:#0000ff;stroke:#0000ff;" x="76.645252" xlink:href="#ma73f06dcab" y="292.239576"/>
     <use style="fill:#0000ff;stroke:#0000ff;" x="76.852002" xlink:href="#ma73f06dcab" y="292.228633"/>
     <use style="fill:#0000ff;stroke:#0000ff;" x="77.059542" xlink:href="#ma73f06dcab" y="292.174814"/>
     <use style="fill:#0000ff;stroke:#0000ff;" x="77.267881" xlink:href="#ma73f06dcab" y="292.003023"/>
     <use style="fill:#0000ff;stroke:#0000ff;" x="77.477023" xlink:href="#ma73f06dcab" y="291.694834"/>
     <use style="fill:#0000ff;stroke:#0000ff;" x="77.686975" xlink:href="#ma73f06dcab" y="291.424586"/>
     <use style="fill:#0000ff;stroke:#0000ff;" x="77.897744" xlink:href="#ma73f06dcab" y="291.364477"/>
     <use style="fill:#0000ff;stroke:#0000ff;" x="78.109335" xlink:href="#ma73f06dcab" y="291.328449"/>
     <use style="fill:#0000ff;stroke:#0000ff;" x="78.321756" xlink:href="#ma73f06dcab" y="290.959548"/>
     <use style="fill:#0000ff;stroke:#0000ff;" x="78.535012" xlink:href="#ma73f06dcab" y="290.892779"/>
     <use style="fill:#0000ff;stroke:#0000ff;" x="78.749111" xlink:href="#ma73f06dcab" y="290.692397"/>
     <use style="fill:#0000ff;stroke:#0000ff;" x="78.964058" xlink:href="#ma73f06dcab" y="290.355652"/>
     <use style="fill:#0000ff;stroke:#0000ff;" x="79.179862" xlink:href="#ma73f06dcab" y="289.970071"/>
     <use style="fill:#0000ff;stroke:#0000ff;" x="79.396528" xlink:href="#ma73f06dcab" y="289.896084"/>
     <use style="fill:#0000ff;stroke:#0000ff;" x="79.614063" xlink:href="#ma73f06dcab" y="289.890135"/>
     <use style="fill:#0000ff;stroke:#0000ff;" x="79.832475" xlink:href="#ma73f06dcab" y="289.879585"/>
     <use style="fill:#0000ff;stroke:#0000ff;" x="80.051771" xlink:href="#ma73f06dcab" y="289.869497"/>
     <use style="fill:#0000ff;stroke:#0000ff;" x="80.271957" xlink:href="#ma73f06dcab" y="289.066803"/>
     <use style="fill:#0000ff;stroke:#0000ff;" x="80.493041" xlink:href="#ma73f06dcab" y="289.050029"/>
     <use style="fill:#0000ff;stroke:#0000ff;" x="80.715031" xlink:href="#ma73f06dcab" y="288.831297"/>
     <use style="fill:#0000ff;stroke:#0000ff;" x="80.937934" xlink:href="#ma73f06dcab" y="288.82087"/>
     <use style="fill:#0000ff;stroke:#0000ff;" x="81.161757" xlink:href="#ma73f06dcab" y="288.572036"/>
     <use style="fill:#0000ff;stroke:#0000ff;" x="81.386508" xlink:href="#ma73f06dcab" y="288.366581"/>
     <use style="fill:#0000ff;stroke:#0000ff;" x="81.612195" xlink:href="#ma73f06dcab" y="287.746557"/>
     <use style="fill:#0000ff;stroke:#0000ff;" x="81.838825" xlink:href="#ma73f06dcab" y="287.685447"/>
     <use style="fill:#0000ff;stroke:#0000ff;" x="82.066407" xlink:href="#ma73f06dcab" y="287.494854"/>
     <use style="fill:#0000ff;stroke:#0000ff;" x="82.294949" xlink:href="#ma73f06dcab" y="287.485066"/>
     <use style="fill:#0000ff;stroke:#0000ff;" x="82.524458" xlink:href="#ma73f06dcab" y="287.134524"/>
     <use style="fill:#0000ff;stroke:#0000ff;" x="82.754943" xlink:href="#ma73f06dcab" y="286.778149"/>
     <use style="fill:#0000ff;stroke:#0000ff;" x="82.986412" xlink:href="#ma73f06dcab" y="286.570421"/>
     <use style="fill:#0000ff;stroke:#0000ff;" x="83.218874" xlink:href="#ma73f06dcab" y="286.55407"/>
     <use style="fill:#0000ff;stroke:#0000ff;" x="83.452337" xlink:href="#ma73f06dcab" y="286.29418"/>
     <use style="fill:#0000ff;stroke:#0000ff;" x="83.68681" xlink:href="#ma73f06dcab" y="285.534182"/>
     <use style="fill:#0000ff;stroke:#0000ff;" x="83.922301" xlink:href="#ma73f06dcab" y="285.529974"/>
     <use style="fill:#0000ff;stroke:#0000ff;" x="84.15882" xlink:href="#ma73f06dcab" y="285.521075"/>
     <use style="fill:#0000ff;stroke:#0000ff;" x="84.396376" xlink:href="#ma73f06dcab" y="285.428391"/>
     <use style="fill:#0000ff;stroke:#0000ff;" x="84.634977" xlink:href="#ma73f06dcab" y="285.241841"/>
     <use style="fill:#0000ff;stroke:#0000ff;" x="84.874633" xlink:href="#ma73f06dcab" y="285.189476"/>
     <use style="fill:#0000ff;stroke:#0000ff;" x="85.115354" xlink:href="#ma73f06dcab" y="285.178559"/>
     <use style="fill:#0000ff;stroke:#0000ff;" x="85.357148" xlink:href="#ma73f06dcab" y="285.126912"/>
     <use style="fill:#0000ff;stroke:#0000ff;" x="85.600026" xlink:href="#ma73f06dcab" y="285.015108"/>
     <use style="fill:#0000ff;stroke:#0000ff;" x="85.843996" xlink:href="#ma73f06dcab" y="284.607552"/>
     <use style="fill:#0000ff;stroke:#0000ff;" x="86.08907" xlink:href="#ma73f06dcab" y="284.180083"/>
     <use style="fill:#0000ff;stroke:#0000ff;" x="86.335257" xlink:href="#ma73f06dcab" y="284.017611"/>
     <use style="fill:#0000ff;stroke:#0000ff;" x="86.582567" xlink:href="#ma73f06dcab" y="283.929984"/>
     <use style="fill:#0000ff;stroke:#0000ff;" x="86.831011" xlink:href="#ma73f06dcab" y="283.733634"/>
     <use style="fill:#0000ff;stroke:#0000ff;" x="87.080598" xlink:href="#ma73f06dcab" y="283.592931"/>
     <use style="fill:#0000ff;stroke:#0000ff;" x="87.33134" xlink:href="#ma73f06dcab" y="283.563343"/>
     <use style="fill:#0000ff;stroke:#0000ff;" x="87.583248" xlink:href="#ma73f06dcab" y="283.217718"/>
     <use style="fill:#0000ff;stroke:#0000ff;" x="87.836331" xlink:href="#ma73f06dcab" y="283.215504"/>
     <use style="fill:#0000ff;stroke:#0000ff;" x="88.090602" xlink:href="#ma73f06dcab" y="283.16913"/>
     <use style="fill:#0000ff;stroke:#0000ff;" x="88.346071" xlink:href="#ma73f06dcab" y="282.422465"/>
     <use style="fill:#0000ff;stroke:#0000ff;" x="88.602749" xlink:href="#ma73f06dcab" y="281.63108"/>
     <use style="fill:#0000ff;stroke:#0000ff;" x="88.860649" xlink:href="#ma73f06dcab" y="281.268106"/>
     <use style="fill:#0000ff;stroke:#0000ff;" x="89.119782" xlink:href="#ma73f06dcab" y="280.878158"/>
     <use style="fill:#0000ff;stroke:#0000ff;" x="89.38016" xlink:href="#ma73f06dcab" y="280.455273"/>
     <use style="fill:#0000ff;stroke:#0000ff;" x="89.641794" xlink:href="#ma73f06dcab" y="280.449848"/>
     <use style="fill:#0000ff;stroke:#0000ff;" x="89.904697" xlink:href="#ma73f06dcab" y="280.065672"/>
     <use style="fill:#0000ff;stroke:#0000ff;" x="90.168882" xlink:href="#ma73f06dcab" y="279.995272"/>
     <use style="fill:#0000ff;stroke:#0000ff;" x="90.43436" xlink:href="#ma73f06dcab" y="279.914338"/>
     <use style="fill:#0000ff;stroke:#0000ff;" x="90.701145" xlink:href="#ma73f06dcab" y="279.760767"/>
     <use style="fill:#0000ff;stroke:#0000ff;" x="90.96925" xlink:href="#ma73f06dcab" y="279.670761"/>
     <use style="fill:#0000ff;stroke:#0000ff;" x="91.238687" xlink:href="#ma73f06dcab" y="279.312819"/>
     <use style="fill:#0000ff;stroke:#0000ff;" x="91.50947" xlink:href="#ma73f06dcab" y="278.682079"/>
     <use style="fill:#0000ff;stroke:#0000ff;" x="91.781613" xlink:href="#ma73f06dcab" y="278.205739"/>
     <use style="fill:#0000ff;stroke:#0000ff;" x="92.055129" xlink:href="#ma73f06dcab" y="277.434283"/>
     <use style="fill:#0000ff;stroke:#0000ff;" x="92.330032" xlink:href="#ma73f06dcab" y="277.311156"/>
     <use style="fill:#0000ff;stroke:#0000ff;" x="92.606336" xlink:href="#ma73f06dcab" y="277.233691"/>
     <use style="fill:#0000ff;stroke:#0000ff;" x="92.884056" xlink:href="#ma73f06dcab" y="276.626254"/>
     <use style="fill:#0000ff;stroke:#0000ff;" x="93.163206" xlink:href="#ma73f06dcab" y="275.821503"/>
     <use style="fill:#0000ff;stroke:#0000ff;" x="93.443802" xlink:href="#ma73f06dcab" y="275.648465"/>
     <use style="fill:#0000ff;stroke:#0000ff;" x="93.725857" xlink:href="#ma73f06dcab" y="275.359574"/>
     <use style="fill:#0000ff;stroke:#0000ff;" x="94.009387" xlink:href="#ma73f06dcab" y="274.909983"/>
     <use style="fill:#0000ff;stroke:#0000ff;" x="94.294409" xlink:href="#ma73f06dcab" y="274.597856"/>
     <use style="fill:#0000ff;stroke:#0000ff;" x="94.580937" xlink:href="#ma73f06dcab" y="274.514344"/>
     <use style="fill:#0000ff;stroke:#0000ff;" x="94.868987" xlink:href="#ma73f06dcab" y="274.386351"/>
     <use style="fill:#0000ff;stroke:#0000ff;" x="95.158577" xlink:href="#ma73f06dcab" y="274.073995"/>
     <use style="fill:#0000ff;stroke:#0000ff;" x="95.449721" xlink:href="#ma73f06dcab" y="274.020139"/>
     <use style="fill:#0000ff;stroke:#0000ff;" x="95.742438" xlink:href="#ma73f06dcab" y="273.970631"/>
     <use style="fill:#0000ff;stroke:#0000ff;" x="96.036745" xlink:href="#ma73f06dcab" y="273.936792"/>
     <use style="fill:#0000ff;stroke:#0000ff;" x="96.332658" xlink:href="#ma73f06dcab" y="273.749112"/>
     <use style="fill:#0000ff;stroke:#0000ff;" x="96.630195" xlink:href="#ma73f06dcab" y="273.702571"/>
     <use style="fill:#0000ff;stroke:#0000ff;" x="96.929375" xlink:href="#ma73f06dcab" y="273.533167"/>
     <use style="fill:#0000ff;stroke:#0000ff;" x="97.230214" xlink:href="#ma73f06dcab" y="273.4335"/>
     <use style="fill:#0000ff;stroke:#0000ff;" x="97.532733" xlink:href="#ma73f06dcab" y="272.974663"/>
     <use style="fill:#0000ff;stroke:#0000ff;" x="97.83695" xlink:href="#ma73f06dcab" y="272.828328"/>
     <use style="fill:#0000ff;stroke:#0000ff;" x="98.142884" xlink:href="#ma73f06dcab" y="272.528853"/>
     <use style="fill:#0000ff;stroke:#0000ff;" x="98.450554" xlink:href="#ma73f06dcab" y="272.465868"/>
     <use style="fill:#0000ff;stroke:#0000ff;" x="98.75998" xlink:href="#ma73f06dcab" y="272.014668"/>
     <use style="fill:#0000ff;stroke:#0000ff;" x="99.071183" xlink:href="#ma73f06dcab" y="271.761606"/>
     <use style="fill:#0000ff;stroke:#0000ff;" x="99.384183" xlink:href="#ma73f06dcab" y="271.627893"/>
     <use style="fill:#0000ff;stroke:#0000ff;" x="99.699001" xlink:href="#ma73f06dcab" y="271.034843"/>
     <use style="fill:#0000ff;stroke:#0000ff;" x="100.015658" xlink:href="#ma73f06dcab" y="270.754216"/>
     <use style="fill:#0000ff;stroke:#0000ff;" x="100.334175" xlink:href="#ma73f06dcab" y="270.736162"/>
     <use style="fill:#0000ff;stroke:#0000ff;" x="100.654575" xlink:href="#ma73f06dcab" y="270.364068"/>
     <use style="fill:#0000ff;stroke:#0000ff;" x="100.97688" xlink:href="#ma73f06dcab" y="270.331238"/>
     <use style="fill:#0000ff;stroke:#0000ff;" x="101.301114" xlink:href="#ma73f06dcab" y="270.274054"/>
     <use style="fill:#0000ff;stroke:#0000ff;" x="101.627298" xlink:href="#ma73f06dcab" y="269.177129"/>
     <use style="fill:#0000ff;stroke:#0000ff;" x="101.955457" xlink:href="#ma73f06dcab" y="269.12183"/>
     <use style="fill:#0000ff;stroke:#0000ff;" x="102.285615" xlink:href="#ma73f06dcab" y="268.390503"/>
     <use style="fill:#0000ff;stroke:#0000ff;" x="102.617795" xlink:href="#ma73f06dcab" y="268.076019"/>
     <use style="fill:#0000ff;stroke:#0000ff;" x="102.952025" xlink:href="#ma73f06dcab" y="267.88002"/>
     <use style="fill:#0000ff;stroke:#0000ff;" x="103.288327" xlink:href="#ma73f06dcab" y="266.984523"/>
     <use style="fill:#0000ff;stroke:#0000ff;" x="103.62673" xlink:href="#ma73f06dcab" y="266.551921"/>
     <use style="fill:#0000ff;stroke:#0000ff;" x="103.967258" xlink:href="#ma73f06dcab" y="266.486077"/>
     <use style="fill:#0000ff;stroke:#0000ff;" x="104.309939" xlink:href="#ma73f06dcab" y="266.37403"/>
     <use style="fill:#0000ff;stroke:#0000ff;" x="104.6548" xlink:href="#ma73f06dcab" y="266.25706"/>
     <use style="fill:#0000ff;stroke:#0000ff;" x="105.001869" xlink:href="#ma73f06dcab" y="266.192286"/>
     <use style="fill:#0000ff;stroke:#0000ff;" x="105.351175" xlink:href="#ma73f06dcab" y="266.141027"/>
     <use style="fill:#0000ff;stroke:#0000ff;" x="105.702746" xlink:href="#ma73f06dcab" y="266.066211"/>
     <use style="fill:#0000ff;stroke:#0000ff;" x="106.056612" xlink:href="#ma73f06dcab" y="265.659849"/>
     <use style="fill:#0000ff;stroke:#0000ff;" x="106.412804" xlink:href="#ma73f06dcab" y="264.873342"/>
     <use style="fill:#0000ff;stroke:#0000ff;" x="106.771352" xlink:href="#ma73f06dcab" y="264.861483"/>
     <use style="fill:#0000ff;stroke:#0000ff;" x="107.132287" xlink:href="#ma73f06dcab" y="264.208142"/>
     <use style="fill:#0000ff;stroke:#0000ff;" x="107.495642" xlink:href="#ma73f06dcab" y="263.998184"/>
     <use style="fill:#0000ff;stroke:#0000ff;" x="107.861448" xlink:href="#ma73f06dcab" y="263.879615"/>
     <use style="fill:#0000ff;stroke:#0000ff;" x="108.229741" xlink:href="#ma73f06dcab" y="263.873295"/>
     <use style="fill:#0000ff;stroke:#0000ff;" x="108.600552" xlink:href="#ma73f06dcab" y="263.710431"/>
     <use style="fill:#0000ff;stroke:#0000ff;" x="108.973918" xlink:href="#ma73f06dcab" y="263.515509"/>
     <use style="fill:#0000ff;stroke:#0000ff;" x="109.349873" xlink:href="#ma73f06dcab" y="262.72034"/>
     <use style="fill:#0000ff;stroke:#0000ff;" x="109.728454" xlink:href="#ma73f06dcab" y="262.615588"/>
     <use style="fill:#0000ff;stroke:#0000ff;" x="110.109698" xlink:href="#ma73f06dcab" y="262.16844"/>
     <use style="fill:#0000ff;stroke:#0000ff;" x="110.493642" xlink:href="#ma73f06dcab" y="262.125964"/>
     <use style="fill:#0000ff;stroke:#0000ff;" x="110.880325" xlink:href="#ma73f06dcab" y="261.945581"/>
     <use style="fill:#0000ff;stroke:#0000ff;" x="111.269786" xlink:href="#ma73f06dcab" y="261.936248"/>
     <use style="fill:#0000ff;stroke:#0000ff;" x="111.662065" xlink:href="#ma73f06dcab" y="261.707048"/>
     <use style="fill:#0000ff;stroke:#0000ff;" x="112.057205" xlink:href="#ma73f06dcab" y="261.644707"/>
     <use style="fill:#0000ff;stroke:#0000ff;" x="112.455245" xlink:href="#ma73f06dcab" y="261.027801"/>
     <use style="fill:#0000ff;stroke:#0000ff;" x="112.856231" xlink:href="#ma73f06dcab" y="260.945938"/>
     <use style="fill:#0000ff;stroke:#0000ff;" x="113.260204" xlink:href="#ma73f06dcab" y="260.893238"/>
     <use style="fill:#0000ff;stroke:#0000ff;" x="113.667211" xlink:href="#ma73f06dcab" y="260.832674"/>
     <use style="fill:#0000ff;stroke:#0000ff;" x="114.077297" xlink:href="#ma73f06dcab" y="260.763852"/>
     <use style="fill:#0000ff;stroke:#0000ff;" x="114.49051" xlink:href="#ma73f06dcab" y="260.732768"/>
     <use style="fill:#0000ff;stroke:#0000ff;" x="114.906896" xlink:href="#ma73f06dcab" y="260.732157"/>
     <use style="fill:#0000ff;stroke:#0000ff;" x="115.326506" xlink:href="#ma73f06dcab" y="260.389615"/>
     <use style="fill:#0000ff;stroke:#0000ff;" x="115.749389" xlink:href="#ma73f06dcab" y="260.371476"/>
     <use style="fill:#0000ff;stroke:#0000ff;" x="116.175597" xlink:href="#ma73f06dcab" y="259.717755"/>
     <use style="fill:#0000ff;stroke:#0000ff;" x="116.605183" xlink:href="#ma73f06dcab" y="259.682742"/>
     <use style="fill:#0000ff;stroke:#0000ff;" x="117.038201" xlink:href="#ma73f06dcab" y="259.620351"/>
     <use style="fill:#0000ff;stroke:#0000ff;" x="117.474705" xlink:href="#ma73f06dcab" y="258.803376"/>
     <use style="fill:#0000ff;stroke:#0000ff;" x="117.914754" xlink:href="#ma73f06dcab" y="258.798042"/>
     <use style="fill:#0000ff;stroke:#0000ff;" x="118.358403" xlink:href="#ma73f06dcab" y="258.71464"/>
     <use style="fill:#0000ff;stroke:#0000ff;" x="118.805714" xlink:href="#ma73f06dcab" y="257.848937"/>
     <use style="fill:#0000ff;stroke:#0000ff;" x="119.256747" xlink:href="#ma73f06dcab" y="257.636191"/>
     <use style="fill:#0000ff;stroke:#0000ff;" x="119.711565" xlink:href="#ma73f06dcab" y="257.283594"/>
     <use style="fill:#0000ff;stroke:#0000ff;" x="120.17023" xlink:href="#ma73f06dcab" y="256.828051"/>
     <use style="fill:#0000ff;stroke:#0000ff;" x="120.63281" xlink:href="#ma73f06dcab" y="255.606846"/>
     <use style="fill:#0000ff;stroke:#0000ff;" x="121.099372" xlink:href="#ma73f06dcab" y="255.318236"/>
     <use style="fill:#0000ff;stroke:#0000ff;" x="121.569984" xlink:href="#ma73f06dcab" y="254.840467"/>
     <use style="fill:#0000ff;stroke:#0000ff;" x="122.044718" xlink:href="#ma73f06dcab" y="254.601543"/>
     <use style="fill:#0000ff;stroke:#0000ff;" x="122.523646" xlink:href="#ma73f06dcab" y="254.171215"/>
     <use style="fill:#0000ff;stroke:#0000ff;" x="123.006844" xlink:href="#ma73f06dcab" y="254.099042"/>
     <use style="fill:#0000ff;stroke:#0000ff;" x="123.494387" xlink:href="#ma73f06dcab" y="253.961898"/>
     <use style="fill:#0000ff;stroke:#0000ff;" x="123.986356" xlink:href="#ma73f06dcab" y="253.920042"/>
     <use style="fill:#0000ff;stroke:#0000ff;" x="124.48283" xlink:href="#ma73f06dcab" y="253.916447"/>
     <use style="fill:#0000ff;stroke:#0000ff;" x="124.983894" xlink:href="#ma73f06dcab" y="253.903736"/>
     <use style="fill:#0000ff;stroke:#0000ff;" x="125.489633" xlink:href="#ma73f06dcab" y="253.877801"/>
     <use style="fill:#0000ff;stroke:#0000ff;" x="126.000135" xlink:href="#ma73f06dcab" y="253.685317"/>
     <use style="fill:#0000ff;stroke:#0000ff;" x="126.51549" xlink:href="#ma73f06dcab" y="253.530033"/>
     <use style="fill:#0000ff;stroke:#0000ff;" x="127.035792" xlink:href="#ma73f06dcab" y="253.213529"/>
     <use style="fill:#0000ff;stroke:#0000ff;" x="127.561136" xlink:href="#ma73f06dcab" y="252.814431"/>
     <use style="fill:#0000ff;stroke:#0000ff;" x="128.091622" xlink:href="#ma73f06dcab" y="252.789863"/>
     <use style="fill:#0000ff;stroke:#0000ff;" x="128.627351" xlink:href="#ma73f06dcab" y="252.760164"/>
     <use style="fill:#0000ff;stroke:#0000ff;" x="129.168428" xlink:href="#ma73f06dcab" y="252.641537"/>
     <use style="fill:#0000ff;stroke:#0000ff;" x="129.71496" xlink:href="#ma73f06dcab" y="252.557247"/>
     <use style="fill:#0000ff;stroke:#0000ff;" x="130.267058" xlink:href="#ma73f06dcab" y="251.242491"/>
     <use style="fill:#0000ff;stroke:#0000ff;" x="130.824838" xlink:href="#ma73f06dcab" y="251.24219"/>
     <use style="fill:#0000ff;stroke:#0000ff;" x="131.388417" xlink:href="#ma73f06dcab" y="250.622874"/>
     <use style="fill:#0000ff;stroke:#0000ff;" x="131.957917" xlink:href="#ma73f06dcab" y="250.610953"/>
     <use style="fill:#0000ff;stroke:#0000ff;" x="132.533464" xlink:href="#ma73f06dcab" y="250.263262"/>
     <use style="fill:#0000ff;stroke:#0000ff;" x="133.115188" xlink:href="#ma73f06dcab" y="250.212313"/>
     <use style="fill:#0000ff;stroke:#0000ff;" x="133.703222" xlink:href="#ma73f06dcab" y="250.161608"/>
     <use style="fill:#0000ff;stroke:#0000ff;" x="134.297706" xlink:href="#ma73f06dcab" y="250.137009"/>
     <use style="fill:#0000ff;stroke:#0000ff;" x="134.898781" xlink:href="#ma73f06dcab" y="249.755429"/>
     <use style="fill:#0000ff;stroke:#0000ff;" x="135.506597" xlink:href="#ma73f06dcab" y="249.487762"/>
     <use style="fill:#0000ff;stroke:#0000ff;" x="136.121305" xlink:href="#ma73f06dcab" y="249.457135"/>
     <use style="fill:#0000ff;stroke:#0000ff;" x="136.743065" xlink:href="#ma73f06dcab" y="249.446947"/>
     <use style="fill:#0000ff;stroke:#0000ff;" x="137.372039" xlink:href="#ma73f06dcab" y="249.414875"/>
     <use style="fill:#0000ff;stroke:#0000ff;" x="138.008397" xlink:href="#ma73f06dcab" y="248.866044"/>
     <use style="fill:#0000ff;stroke:#0000ff;" x="138.652315" xlink:href="#ma73f06dcab" y="248.675663"/>
     <use style="fill:#0000ff;stroke:#0000ff;" x="139.303973" xlink:href="#ma73f06dcab" y="248.172014"/>
     <use style="fill:#0000ff;stroke:#0000ff;" x="139.963562" xlink:href="#ma73f06dcab" y="247.717456"/>
     <use style="fill:#0000ff;stroke:#0000ff;" x="140.631275" xlink:href="#ma73f06dcab" y="247.310442"/>
     <use style="fill:#0000ff;stroke:#0000ff;" x="141.307316" xlink:href="#ma73f06dcab" y="247.045581"/>
     <use style="fill:#0000ff;stroke:#0000ff;" x="141.991895" xlink:href="#ma73f06dcab" y="246.672383"/>
     <use style="fill:#0000ff;stroke:#0000ff;" x="142.68523" xlink:href="#ma73f06dcab" y="245.834693"/>
     <use style="fill:#0000ff;stroke:#0000ff;" x="143.387549" xlink:href="#ma73f06dcab" y="244.665942"/>
     <use style="fill:#0000ff;stroke:#0000ff;" x="144.099086" xlink:href="#ma73f06dcab" y="242.35387"/>
     <use style="fill:#0000ff;stroke:#0000ff;" x="144.820089" xlink:href="#ma73f06dcab" y="241.714644"/>
     <use style="fill:#0000ff;stroke:#0000ff;" x="145.55081" xlink:href="#ma73f06dcab" y="240.761023"/>
     <use style="fill:#0000ff;stroke:#0000ff;" x="146.291517" xlink:href="#ma73f06dcab" y="239.782558"/>
     <use style="fill:#0000ff;stroke:#0000ff;" x="147.042486" xlink:href="#ma73f06dcab" y="238.029649"/>
     <use style="fill:#0000ff;stroke:#0000ff;" x="147.804005" xlink:href="#ma73f06dcab" y="238.023825"/>
     <use style="fill:#0000ff;stroke:#0000ff;" x="148.576376" xlink:href="#ma73f06dcab" y="237.652595"/>
     <use style="fill:#0000ff;stroke:#0000ff;" x="149.35991" xlink:href="#ma73f06dcab" y="236.438588"/>
     <use style="fill:#0000ff;stroke:#0000ff;" x="150.154937" xlink:href="#ma73f06dcab" y="235.318225"/>
     <use style="fill:#0000ff;stroke:#0000ff;" x="150.961798" xlink:href="#ma73f06dcab" y="234.800544"/>
     <use style="fill:#0000ff;stroke:#0000ff;" x="151.780851" xlink:href="#ma73f06dcab" y="234.449792"/>
     <use style="fill:#0000ff;stroke:#0000ff;" x="152.61247" xlink:href="#ma73f06dcab" y="232.925704"/>
     <use style="fill:#0000ff;stroke:#0000ff;" x="153.457047" xlink:href="#ma73f06dcab" y="232.474309"/>
     <use style="fill:#0000ff;stroke:#0000ff;" x="154.314992" xlink:href="#ma73f06dcab" y="232.38289"/>
     <use style="fill:#0000ff;stroke:#0000ff;" x="155.186734" xlink:href="#ma73f06dcab" y="230.459006"/>
     <use style="fill:#0000ff;stroke:#0000ff;" x="156.072725" xlink:href="#ma73f06dcab" y="230.013847"/>
     <use style="fill:#0000ff;stroke:#0000ff;" x="156.973439" xlink:href="#ma73f06dcab" y="229.473045"/>
     <use style="fill:#0000ff;stroke:#0000ff;" x="157.889372" xlink:href="#ma73f06dcab" y="229.021936"/>
     <use style="fill:#0000ff;stroke:#0000ff;" x="158.821049" xlink:href="#ma73f06dcab" y="228.44563"/>
     <use style="fill:#0000ff;stroke:#0000ff;" x="159.76902" xlink:href="#ma73f06dcab" y="227.322021"/>
     <use style="fill:#0000ff;stroke:#0000ff;" x="160.733864" xlink:href="#ma73f06dcab" y="226.202256"/>
     <use style="fill:#0000ff;stroke:#0000ff;" x="161.716194" xlink:href="#ma73f06dcab" y="225.778649"/>
     <use style="fill:#0000ff;stroke:#0000ff;" x="162.716655" xlink:href="#ma73f06dcab" y="224.147637"/>
     <use style="fill:#0000ff;stroke:#0000ff;" x="163.73593" xlink:href="#ma73f06dcab" y="223.909997"/>
     <use style="fill:#0000ff;stroke:#0000ff;" x="164.774738" xlink:href="#ma73f06dcab" y="223.767748"/>
     <use style="fill:#0000ff;stroke:#0000ff;" x="165.833843" xlink:href="#ma73f06dcab" y="223.468251"/>
     <use style="fill:#0000ff;stroke:#0000ff;" x="166.914055" xlink:href="#ma73f06dcab" y="222.696461"/>
     <use style="fill:#0000ff;stroke:#0000ff;" x="168.016232" xlink:href="#ma73f06dcab" y="222.591666"/>
     <use style="fill:#0000ff;stroke:#0000ff;" x="169.141286" xlink:href="#ma73f06dcab" y="222.425045"/>
     <use style="fill:#0000ff;stroke:#0000ff;" x="170.290186" xlink:href="#ma73f06dcab" y="221.883592"/>
     <use style="fill:#0000ff;stroke:#0000ff;" x="171.463965" xlink:href="#ma73f06dcab" y="220.83539"/>
     <use style="fill:#0000ff;stroke:#0000ff;" x="172.663725" xlink:href="#ma73f06dcab" y="220.006385"/>
     <use style="fill:#0000ff;stroke:#0000ff;" x="173.890642" xlink:href="#ma73f06dcab" y="219.643753"/>
     <use style="fill:#0000ff;stroke:#0000ff;" x="175.145974" xlink:href="#ma73f06dcab" y="218.764057"/>
     <use style="fill:#0000ff;stroke:#0000ff;" x="176.431069" xlink:href="#ma73f06dcab" y="218.744252"/>
     <use style="fill:#0000ff;stroke:#0000ff;" x="177.747371" xlink:href="#ma73f06dcab" y="218.324389"/>
     <use style="fill:#0000ff;stroke:#0000ff;" x="179.096434" xlink:href="#ma73f06dcab" y="216.913389"/>
     <use style="fill:#0000ff;stroke:#0000ff;" x="180.479932" xlink:href="#ma73f06dcab" y="212.052797"/>
     <use style="fill:#0000ff;stroke:#0000ff;" x="181.899667" xlink:href="#ma73f06dcab" y="210.829787"/>
     <use style="fill:#0000ff;stroke:#0000ff;" x="183.35759" xlink:href="#ma73f06dcab" y="210.532111"/>
     <use style="fill:#0000ff;stroke:#0000ff;" x="184.855811" xlink:href="#ma73f06dcab" y="210.528984"/>
     <use style="fill:#0000ff;stroke:#0000ff;" x="186.396623" xlink:href="#ma73f06dcab" y="209.885967"/>
     <use style="fill:#0000ff;stroke:#0000ff;" x="187.982517" xlink:href="#ma73f06dcab" y="209.577807"/>
     <use style="fill:#0000ff;stroke:#0000ff;" x="189.616211" xlink:href="#ma73f06dcab" y="208.347696"/>
     <use style="fill:#0000ff;stroke:#0000ff;" x="191.300676" xlink:href="#ma73f06dcab" y="207.019027"/>
     <use style="fill:#0000ff;stroke:#0000ff;" x="193.03917" xlink:href="#ma73f06dcab" y="206.915258"/>
     <use style="fill:#0000ff;stroke:#0000ff;" x="194.835274" xlink:href="#ma73f06dcab" y="206.697676"/>
     <use style="fill:#0000ff;stroke:#0000ff;" x="196.692937" xlink:href="#ma73f06dcab" y="205.232327"/>
     <use style="fill:#0000ff;stroke:#0000ff;" x="198.616529" xlink:href="#ma73f06dcab" y="204.867658"/>
     <use style="fill:#0000ff;stroke:#0000ff;" x="200.610903" xlink:href="#ma73f06dcab" y="204.39021"/>
     <use style="fill:#0000ff;stroke:#0000ff;" x="202.681467" xlink:href="#ma73f06dcab" y="199.667803"/>
     <use style="fill:#0000ff;stroke:#0000ff;" x="204.834274" xlink:href="#ma73f06dcab" y="198.185679"/>
     <use style="fill:#0000ff;stroke:#0000ff;" x="207.07613" xlink:href="#ma73f06dcab" y="195.814416"/>
     <use style="fill:#0000ff;stroke:#0000ff;" x="209.41472" xlink:href="#ma73f06dcab" y="195.028259"/>
     <use style="fill:#0000ff;stroke:#0000ff;" x="211.858769" xlink:href="#ma73f06dcab" y="193.918114"/>
     <use style="fill:#0000ff;stroke:#0000ff;" x="214.418242" xlink:href="#ma73f06dcab" y="187.541703"/>
     <use style="fill:#0000ff;stroke:#0000ff;" x="217.104581" xlink:href="#ma73f06dcab" y="183.581334"/>
     <use style="fill:#0000ff;stroke:#0000ff;" x="219.931023" xlink:href="#ma73f06dcab" y="183.433257"/>
     <use style="fill:#0000ff;stroke:#0000ff;" x="222.91299" xlink:href="#ma73f06dcab" y="182.41188"/>
     <use style="fill:#0000ff;stroke:#0000ff;" x="226.068599" xlink:href="#ma73f06dcab" y="179.504887"/>
     <use style="fill:#0000ff;stroke:#0000ff;" x="229.419331" xlink:href="#ma73f06dcab" y="178.44122"/>
     <use style="fill:#0000ff;stroke:#0000ff;" x="232.990913" xlink:href="#ma73f06dcab" y="175.492948"/>
     <use style="fill:#0000ff;stroke:#0000ff;" x="236.814529" xlink:href="#ma73f06dcab" y="169.840415"/>
     <use style="fill:#0000ff;stroke:#0000ff;" x="240.928465" xlink:href="#ma73f06dcab" y="169.838294"/>
     <use style="fill:#0000ff;stroke:#0000ff;" x="245.380459" xlink:href="#ma73f06dcab" y="169.582369"/>
     <use style="fill:#0000ff;stroke:#0000ff;" x="250.231084" xlink:href="#ma73f06dcab" y="169.094809"/>
     <use style="fill:#0000ff;stroke:#0000ff;" x="255.558811" xlink:href="#ma73f06dcab" y="168.476185"/>
     <use style="fill:#0000ff;stroke:#0000ff;" x="261.467835" xlink:href="#ma73f06dcab" y="163.600762"/>
     <use style="fill:#0000ff;stroke:#0000ff;" x="268.100718" xlink:href="#ma73f06dcab" y="152.372372"/>
     <use style="fill:#0000ff;stroke:#0000ff;" x="275.659892" xlink:href="#ma73f06dcab" y="146.821329"/>
     <use style="fill:#0000ff;stroke:#0000ff;" x="284.446724" xlink:href="#ma73f06dcab" y="136.236524"/>
     <use style="fill:#0000ff;stroke:#0000ff;" x="294.93878" xlink:href="#ma73f06dcab" y="132.693788"/>
     <use style="fill:#0000ff;stroke:#0000ff;" x="307.961232" xlink:href="#ma73f06dcab" y="127.297121"/>
     <use style="fill:#0000ff;stroke:#0000ff;" x="325.13599" xlink:href="#ma73f06dcab" y="111.711276"/>
     <use style="fill:#0000ff;stroke:#0000ff;" x="350.421352" xlink:href="#ma73f06dcab" y="103.492803"/>
     <use style="fill:#0000ff;stroke:#0000ff;" x="398.487273" xlink:href="#ma73f06dcab" y="53.568"/>
    </g>
   </g>
   <g id="line2d_16">
    <path clip-path="url(#pa21e7b96c7)" d="M 73.832727 291.638507 
L 398.487273 57.547025 
L 398.487273 57.547025 
" style="fill:none;stroke:#ff0000;stroke-linecap:square;stroke-width:1.5;"/>
   </g>
   <g id="patch_3">
    <path d="M 57.6 307.584 
L 57.6 41.472 
" style="fill:none;stroke:#000000;stroke-linecap:square;stroke-linejoin:miter;stroke-width:0.8;"/>
   </g>
   <g id="patch_4">
    <path d="M 414.72 307.584 
L 414.72 41.472 
" style="fill:none;stroke:#000000;stroke-linecap:square;stroke-linejoin:miter;stroke-width:0.8;"/>
   </g>
   <g id="patch_5">
    <path d="M 57.6 307.584 
L 414.72 307.584 
" style="fill:none;stroke:#000000;stroke-linecap:square;stroke-linejoin:miter;stroke-width:0.8;"/>
   </g>
   <g id="patch_6">
    <path d="M 57.6 41.472 
L 414.72 41.472 
" style="fill:none;stroke:#000000;stroke-linecap:square;stroke-linejoin:miter;stroke-width:0.8;"/>
   </g>
   <g id="text_17">
    <!-- Probability Plot -->
    <defs>
     <path d="M 19.671875 64.796875 
L 19.671875 37.40625 
L 32.078125 37.40625 
Q 38.96875 37.40625 42.71875 40.96875 
Q 46.484375 44.53125 46.484375 51.125 
Q 46.484375 57.671875 42.71875 61.234375 
Q 38.96875 64.796875 32.078125 64.796875 
z
M 9.8125 72.90625 
L 32.078125 72.90625 
Q 44.34375 72.90625 50.609375 67.359375 
Q 56.890625 61.8125 56.890625 51.125 
Q 56.890625 40.328125 50.609375 34.8125 
Q 44.34375 29.296875 32.078125 29.296875 
L 19.671875 29.296875 
L 19.671875 0 
L 9.8125 0 
z
" id="DejaVuSans-80"/>
     <path d="M 48.6875 27.296875 
Q 48.6875 37.203125 44.609375 42.84375 
Q 40.53125 48.484375 33.40625 48.484375 
Q 26.265625 48.484375 22.1875 42.84375 
Q 18.109375 37.203125 18.109375 27.296875 
Q 18.109375 17.390625 22.1875 11.75 
Q 26.265625 6.109375 33.40625 6.109375 
Q 40.53125 6.109375 44.609375 11.75 
Q 48.6875 17.390625 48.6875 27.296875 
z
M 18.109375 46.390625 
Q 20.953125 51.265625 25.265625 53.625 
Q 29.59375 56 35.59375 56 
Q 45.5625 56 51.78125 48.09375 
Q 58.015625 40.1875 58.015625 27.296875 
Q 58.015625 14.40625 51.78125 6.484375 
Q 45.5625 -1.421875 35.59375 -1.421875 
Q 29.59375 -1.421875 25.265625 0.953125 
Q 20.953125 3.328125 18.109375 8.203125 
L 18.109375 0 
L 9.078125 0 
L 9.078125 75.984375 
L 18.109375 75.984375 
z
" id="DejaVuSans-98"/>
     <path d="M 32.171875 -5.078125 
Q 28.375 -14.84375 24.75 -17.8125 
Q 21.140625 -20.796875 15.09375 -20.796875 
L 7.90625 -20.796875 
L 7.90625 -13.28125 
L 13.1875 -13.28125 
Q 16.890625 -13.28125 18.9375 -11.515625 
Q 21 -9.765625 23.484375 -3.21875 
L 25.09375 0.875 
L 2.984375 54.6875 
L 12.5 54.6875 
L 29.59375 11.921875 
L 46.6875 54.6875 
L 56.203125 54.6875 
z
" id="DejaVuSans-121"/>
    </defs>
    <g transform="translate(190.993125 35.472)scale(0.12 -0.12)">
     <use xlink:href="#DejaVuSans-80"/>
     <use x="60.287109" xlink:href="#DejaVuSans-114"/>
     <use x="101.369141" xlink:href="#DejaVuSans-111"/>
     <use x="162.550781" xlink:href="#DejaVuSans-98"/>
     <use x="226.027344" xlink:href="#DejaVuSans-97"/>
     <use x="287.306641" xlink:href="#DejaVuSans-98"/>
     <use x="350.783203" xlink:href="#DejaVuSans-105"/>
     <use x="378.566406" xlink:href="#DejaVuSans-108"/>
     <use x="406.349609" xlink:href="#DejaVuSans-105"/>
     <use x="434.132812" xlink:href="#DejaVuSans-116"/>
     <use x="473.341797" xlink:href="#DejaVuSans-121"/>
     <use x="532.521484" xlink:href="#DejaVuSans-32"/>
     <use x="564.308594" xlink:href="#DejaVuSans-80"/>
     <use x="624.611328" xlink:href="#DejaVuSans-108"/>
     <use x="652.394531" xlink:href="#DejaVuSans-111"/>
     <use x="713.576172" xlink:href="#DejaVuSans-116"/>
    </g>
   </g>
  </g>
 </g>
 <defs>
  <clipPath id="pa21e7b96c7">
   <rect height="266.112" width="357.12" x="57.6" y="41.472"/>
  </clipPath>
 </defs>
</svg>
